<svg preserveAspectRatio="none" overflow="visible" style="display: block;" width="47.9534" height="21.0005" viewBox="0 0 47.9534 21.0005" fill="none" xmlns="http://www.w3.org/2000/svg">
<g id="Group 27">
<path id="Ellipse 3 (Stroke)" d="M45.2713 10.5005C45.2713 6.15123 41.6688 2.62547 37.2249 2.62547V0.000471115C43.1501 0.000471115 47.9534 4.70148 47.9534 10.5005C47.9534 16.2995 43.1501 21.0005 37.2249 21.0005V18.3755C41.6688 18.3755 45.2713 14.8497 45.2713 10.5005Z" fill="#FAFAFA" style="fill:#FAFAFA;fill:color(display-p3 0.9804 0.9804 0.9804);fill-opacity:1;"/>
<path id="Union" d="M34.4369 2.62501C29.9932 2.62503 26.3912 6.151 26.391 10.5C26.391 14.8492 29.993 18.375 34.4369 18.375V21C30.3964 21 26.8789 18.8136 25.0492 15.584C23.2195 18.8134 19.7028 20.9999 15.6625 21V18.375C20.1062 18.3749 23.7084 14.8492 23.7084 10.5C23.7081 6.15108 20.106 2.62517 15.6625 2.62501V1.23978e-05C19.7025 0.000117986 23.2194 2.18704 25.0492 5.41603C26.879 2.1868 30.3967 2.54681e-05 34.4369 1.23978e-05V2.62501Z" fill="#FAFAFA" style="fill:#FAFAFA;fill:color(display-p3 0.9804 0.9804 0.9804);fill-opacity:1;"/>
<path id="Union_2" d="M2.68262 7.21973C4.09053 3.02792 8.11989 7.12328e-05 12.874 0V2.625C8.4304 2.62509 4.82839 6.15103 4.82812 10.5C4.82812 14.8492 8.43023 18.3749 12.874 18.375V21C8.11957 20.9999 4.09027 17.9725 2.68262 13.7803V21H0V0H2.68262V7.21973Z" fill="#FAFAFA" style="fill:#FAFAFA;fill:color(display-p3 0.9804 0.9804 0.9804);fill-opacity:1;"/>
</g>
</svg>
