<svg preserveAspectRatio="none" overflow="visible" style="display: block;" width="28" height="28" viewBox="0 0 28 28" fill="none" xmlns="http://www.w3.org/2000/svg">
<path id="Union" d="M14 0C21.6999 6.17718e-05 28 6.30004 28 14C28 21.7 21.6999 27.9999 14 28C6.3 28 0 21.7 0 14C3.83642e-06 6.3 6.3 0 14 0ZM14 2.7998C7.812 2.7998 2.79981 7.812 2.7998 14C2.7998 20.188 7.812 25.2002 14 25.2002C20.1879 25.2001 25.2002 20.188 25.2002 14C25.2002 7.81204 20.1879 2.79987 14 2.7998ZM18.8008 9.80859C19.1343 9.76998 19.4672 9.87116 19.7285 10.0879H19.7305C19.8597 10.1945 19.9657 10.3286 20.0449 10.4785C20.1239 10.6284 20.1753 10.7932 20.1934 10.9629C20.2113 11.1326 20.1959 11.3047 20.1504 11.4688C20.1277 11.5505 20.0979 11.6298 20.0605 11.7051L19.9258 11.9199L14.2812 19.3047V19.3066C14.1701 19.4502 14.0309 19.5694 13.873 19.6543C13.7153 19.7391 13.5409 19.7886 13.3633 19.7988C13.1857 19.809 13.0076 19.7792 12.8418 19.7129C12.7589 19.6797 12.6794 19.638 12.6055 19.5879L12.4004 19.4141L8.16602 14.9844L8.16211 14.9805L8.08789 14.8965L8.08008 14.8867C7.6809 14.3752 7.70808 13.6235 8.16602 13.1445C8.62808 12.662 9.36288 12.6293 9.85938 13.0527L9.86914 13.0605L9.94727 13.1387L9.95312 13.1426L13.1992 16.5234L17.7949 10.5234L17.7773 10.5195L17.9531 10.293C18.163 10.0225 18.4669 9.84737 18.8008 9.80859ZM12.7178 19.4219C12.78 19.4642 12.8466 19.4995 12.916 19.5273C12.9583 19.5443 13.002 19.5564 13.0459 19.5674C13.0024 19.5564 12.959 19.5441 12.917 19.5273C12.8474 19.4995 12.7802 19.4642 12.7178 19.4219ZM8.31055 14.8477L12.5449 19.2754L8.31055 14.8467L8.27637 14.8076L8.31055 14.8477ZM13.2168 16.8301L9.80859 13.2812L9.73047 13.2051C9.57458 13.072 9.39067 12.992 9.20117 12.9658C9.39029 12.992 9.57371 13.0722 9.72949 13.2051L9.80957 13.2822L13.2168 16.8311L18.127 10.4199L13.2168 16.8301ZM8.91504 12.9668C8.82028 12.9805 8.72682 13.0074 8.6377 13.0479C8.57836 13.0748 8.5206 13.1076 8.46582 13.1465C8.41098 13.1853 8.35914 13.2305 8.31055 13.2812C8.26197 13.332 8.2188 13.3861 8.18164 13.4434C8.16302 13.472 8.14565 13.5013 8.12988 13.5312C8.08963 13.6078 8.06064 13.6889 8.03906 13.7715C8.08614 13.5925 8.17579 13.4231 8.31055 13.2822C8.48065 13.1046 8.69419 12.9988 8.91504 12.9668ZM19.958 11.415C19.9559 11.4226 19.9524 11.43 19.9502 11.4375L19.959 11.416C19.9687 11.3811 19.9763 11.3454 19.9824 11.3096L19.958 11.415ZM19.9512 10.7715C19.9719 10.8402 19.9855 10.9113 19.9932 10.9834L19.9941 10.9844C19.9865 10.9123 19.9719 10.8402 19.9512 10.7715ZM19.7168 10.3545C19.7751 10.4198 19.8265 10.4923 19.8682 10.5713C19.8718 10.5782 19.8744 10.5857 19.8779 10.5928L19.8691 10.5703C19.8276 10.4917 19.7754 10.4197 19.7168 10.3545ZM19.2344 10.043C19.3665 10.083 19.4913 10.1505 19.6016 10.2422C19.4913 10.1506 19.3665 10.0832 19.2344 10.043ZM18.8242 10.0059L18.8076 10.0088C18.8131 10.0081 18.8187 10.0075 18.8242 10.0068C18.8938 9.99879 18.9635 9.99762 19.0322 10.0039C18.9634 9.99753 18.8938 9.99782 18.8242 10.0059Z" fill="#1AAF7D" style="fill:#1AAF7D;fill:color(display-p3 0.1007 0.6877 0.4896);fill-opacity:1;"/>
</svg>
